<svg xmlns="http://www.w3.org/2000/svg" viewBox="0 0 160 160" role="img" aria-labelledby="title">
  <title id="title">虚构行政服务岗位头像插画</title>
  <rect width="160" height="160" rx="14" fill="#eaf2ff"/>
  <circle cx="80" cy="60" r="30" fill="#edc3a2"/>
  <path d="M49 58c2-27 16-41 34-41 19 0 31 14 30 40-13-3-23-11-29-21-8 11-19 18-35 22Z" fill="#4b342b"/>
  <path d="M42 160c4-37 18-56 38-56s35 19 38 56Z" fill="#f6f7f9"/>
  <path d="m68 109 12 14 12-14 7 51H61Z" fill="#3476d2"/>
  <path d="M70 82c6 4 14 4 20 0" fill="none" stroke="#ad7463" stroke-width="2" stroke-linecap="round"/>
</svg>
