<svg preserveAspectRatio="none" overflow="visible" style="display: block;" width="372" height="128" viewBox="0 0 372 128" fill="none" xmlns="http://www.w3.org/2000/svg">
<g id="Dot grid">
<path id="Vector" d="M12 12.8C12.4418 12.8 12.8 12.4418 12.8 12C12.8 11.5582 12.4418 11.2 12 11.2C11.5582 11.2 11.2 11.5582 11.2 12C11.2 12.4418 11.5582 12.8 12 12.8Z" fill="#D6D6D1"/>
<path id="Vector_2" d="M26 12.8C26.4418 12.8 26.8 12.4418 26.8 12C26.8 11.5582 26.4418 11.2 26 11.2C25.5582 11.2 25.2 11.5582 25.2 12C25.2 12.4418 25.5582 12.8 26 12.8Z" fill="#D6D6D1"/>
<path id="Vector_3" d="M40 12.8C40.4418 12.8 40.8 12.4418 40.8 12C40.8 11.5582 40.4418 11.2 40 11.2C39.5582 11.2 39.2 11.5582 39.2 12C39.2 12.4418 39.5582 12.8 40 12.8Z" fill="#D6D6D1"/>
<path id="Vector_4" d="M54 12.8C54.4418 12.8 54.8 12.4418 54.8 12C54.8 11.5582 54.4418 11.2 54 11.2C53.5582 11.2 53.2 11.5582 53.2 12C53.2 12.4418 53.5582 12.8 54 12.8Z" fill="#D6D6D1"/>
<path id="Vector_5" d="M68 12.8C68.4418 12.8 68.8 12.4418 68.8 12C68.8 11.5582 68.4418 11.2 68 11.2C67.5582 11.2 67.2 11.5582 67.2 12C67.2 12.4418 67.5582 12.8 68 12.8Z" fill="#D6D6D1"/>
<path id="Vector_6" d="M82 12.8C82.4418 12.8 82.8 12.4418 82.8 12C82.8 11.5582 82.4418 11.2 82 11.2C81.5582 11.2 81.2 11.5582 81.2 12C81.2 12.4418 81.5582 12.8 82 12.8Z" fill="#D6D6D1"/>
<path id="Vector_7" d="M96 12.8C96.4418 12.8 96.8 12.4418 96.8 12C96.8 11.5582 96.4418 11.2 96 11.2C95.5582 11.2 95.2 11.5582 95.2 12C95.2 12.4418 95.5582 12.8 96 12.8Z" fill="#D6D6D1"/>
<path id="Vector_8" d="M110 12.8C110.442 12.8 110.8 12.4418 110.8 12C110.8 11.5582 110.442 11.2 110 11.2C109.558 11.2 109.2 11.5582 109.2 12C109.2 12.4418 109.558 12.8 110 12.8Z" fill="#D6D6D1"/>
<path id="Vector_9" d="M124 12.8C124.442 12.8 124.8 12.4418 124.8 12C124.8 11.5582 124.442 11.2 124 11.2C123.558 11.2 123.2 11.5582 123.2 12C123.2 12.4418 123.558 12.8 124 12.8Z" fill="#D6D6D1"/>
<path id="Vector_10" d="M138 12.8C138.442 12.8 138.8 12.4418 138.8 12C138.8 11.5582 138.442 11.2 138 11.2C137.558 11.2 137.2 11.5582 137.2 12C137.2 12.4418 137.558 12.8 138 12.8Z" fill="#D6D6D1"/>
<path id="Vector_11" d="M152 12.8C152.442 12.8 152.8 12.4418 152.8 12C152.8 11.5582 152.442 11.2 152 11.2C151.558 11.2 151.2 11.5582 151.2 12C151.2 12.4418 151.558 12.8 152 12.8Z" fill="#D6D6D1"/>
<path id="Vector_12" d="M166 12.8C166.442 12.8 166.8 12.4418 166.8 12C166.8 11.5582 166.442 11.2 166 11.2C165.558 11.2 165.2 11.5582 165.2 12C165.2 12.4418 165.558 12.8 166 12.8Z" fill="#D6D6D1"/>
<path id="Vector_13" d="M180 12.8C180.442 12.8 180.8 12.4418 180.8 12C180.8 11.5582 180.442 11.2 180 11.2C179.558 11.2 179.2 11.5582 179.2 12C179.2 12.4418 179.558 12.8 180 12.8Z" fill="#D6D6D1"/>
<path id="Vector_14" d="M194 12.8C194.442 12.8 194.8 12.4418 194.8 12C194.8 11.5582 194.442 11.2 194 11.2C193.558 11.2 193.2 11.5582 193.2 12C193.2 12.4418 193.558 12.8 194 12.8Z" fill="#D6D6D1"/>
<path id="Vector_15" d="M208 12.8C208.442 12.8 208.8 12.4418 208.8 12C208.8 11.5582 208.442 11.2 208 11.2C207.558 11.2 207.2 11.5582 207.2 12C207.2 12.4418 207.558 12.8 208 12.8Z" fill="#D6D6D1"/>
<path id="Vector_16" d="M222 12.8C222.442 12.8 222.8 12.4418 222.8 12C222.8 11.5582 222.442 11.2 222 11.2C221.558 11.2 221.2 11.5582 221.2 12C221.2 12.4418 221.558 12.8 222 12.8Z" fill="#D6D6D1"/>
<path id="Vector_17" d="M236 12.8C236.442 12.8 236.8 12.4418 236.8 12C236.8 11.5582 236.442 11.2 236 11.2C235.558 11.2 235.2 11.5582 235.2 12C235.2 12.4418 235.558 12.8 236 12.8Z" fill="#D6D6D1"/>
<path id="Vector_18" d="M250 12.8C250.442 12.8 250.8 12.4418 250.8 12C250.8 11.5582 250.442 11.2 250 11.2C249.558 11.2 249.2 11.5582 249.2 12C249.2 12.4418 249.558 12.8 250 12.8Z" fill="#D6D6D1"/>
<path id="Vector_19" d="M264 12.8C264.442 12.8 264.8 12.4418 264.8 12C264.8 11.5582 264.442 11.2 264 11.2C263.558 11.2 263.2 11.5582 263.2 12C263.2 12.4418 263.558 12.8 264 12.8Z" fill="#D6D6D1"/>
<path id="Vector_20" d="M278 12.8C278.442 12.8 278.8 12.4418 278.8 12C278.8 11.5582 278.442 11.2 278 11.2C277.558 11.2 277.2 11.5582 277.2 12C277.2 12.4418 277.558 12.8 278 12.8Z" fill="#D6D6D1"/>
<path id="Vector_21" d="M292 12.8C292.442 12.8 292.8 12.4418 292.8 12C292.8 11.5582 292.442 11.2 292 11.2C291.558 11.2 291.2 11.5582 291.2 12C291.2 12.4418 291.558 12.8 292 12.8Z" fill="#D6D6D1"/>
<path id="Vector_22" d="M306 12.8C306.442 12.8 306.8 12.4418 306.8 12C306.8 11.5582 306.442 11.2 306 11.2C305.558 11.2 305.2 11.5582 305.2 12C305.2 12.4418 305.558 12.8 306 12.8Z" fill="#D6D6D1"/>
<path id="Vector_23" d="M320 12.8C320.442 12.8 320.8 12.4418 320.8 12C320.8 11.5582 320.442 11.2 320 11.2C319.558 11.2 319.2 11.5582 319.2 12C319.2 12.4418 319.558 12.8 320 12.8Z" fill="#D6D6D1"/>
<path id="Vector_24" d="M334 12.8C334.442 12.8 334.8 12.4418 334.8 12C334.8 11.5582 334.442 11.2 334 11.2C333.558 11.2 333.2 11.5582 333.2 12C333.2 12.4418 333.558 12.8 334 12.8Z" fill="#D6D6D1"/>
<path id="Vector_25" d="M348 12.8C348.442 12.8 348.8 12.4418 348.8 12C348.8 11.5582 348.442 11.2 348 11.2C347.558 11.2 347.2 11.5582 347.2 12C347.2 12.4418 347.558 12.8 348 12.8Z" fill="#D6D6D1"/>
<path id="Vector_26" d="M362 12.8C362.442 12.8 362.8 12.4418 362.8 12C362.8 11.5582 362.442 11.2 362 11.2C361.558 11.2 361.2 11.5582 361.2 12C361.2 12.4418 361.558 12.8 362 12.8Z" fill="#D6D6D1"/>
<path id="Vector_27" d="M12 26.8C12.4418 26.8 12.8 26.4418 12.8 26C12.8 25.5582 12.4418 25.2 12 25.2C11.5582 25.2 11.2 25.5582 11.2 26C11.2 26.4418 11.5582 26.8 12 26.8Z" fill="#D6D6D1"/>
<path id="Vector_28" d="M26 26.8C26.4418 26.8 26.8 26.4418 26.8 26C26.8 25.5582 26.4418 25.2 26 25.2C25.5582 25.2 25.2 25.5582 25.2 26C25.2 26.4418 25.5582 26.8 26 26.8Z" fill="#D6D6D1"/>
<path id="Vector_29" d="M40 26.8C40.4418 26.8 40.8 26.4418 40.8 26C40.8 25.5582 40.4418 25.2 40 25.2C39.5582 25.2 39.2 25.5582 39.2 26C39.2 26.4418 39.5582 26.8 40 26.8Z" fill="#D6D6D1"/>
<path id="Vector_30" d="M54 26.8C54.4418 26.8 54.8 26.4418 54.8 26C54.8 25.5582 54.4418 25.2 54 25.2C53.5582 25.2 53.2 25.5582 53.2 26C53.2 26.4418 53.5582 26.8 54 26.8Z" fill="#D6D6D1"/>
<path id="Vector_31" d="M68 26.8C68.4418 26.8 68.8 26.4418 68.8 26C68.8 25.5582 68.4418 25.2 68 25.2C67.5582 25.2 67.2 25.5582 67.2 26C67.2 26.4418 67.5582 26.8 68 26.8Z" fill="#D6D6D1"/>
<path id="Vector_32" d="M82 26.8C82.4418 26.8 82.8 26.4418 82.8 26C82.8 25.5582 82.4418 25.2 82 25.2C81.5582 25.2 81.2 25.5582 81.2 26C81.2 26.4418 81.5582 26.8 82 26.8Z" fill="#D6D6D1"/>
<path id="Vector_33" d="M96 26.8C96.4418 26.8 96.8 26.4418 96.8 26C96.8 25.5582 96.4418 25.2 96 25.2C95.5582 25.2 95.2 25.5582 95.2 26C95.2 26.4418 95.5582 26.8 96 26.8Z" fill="#D6D6D1"/>
<path id="Vector_34" d="M110 26.8C110.442 26.8 110.8 26.4418 110.8 26C110.8 25.5582 110.442 25.2 110 25.2C109.558 25.2 109.2 25.5582 109.2 26C109.2 26.4418 109.558 26.8 110 26.8Z" fill="#D6D6D1"/>
<path id="Vector_35" d="M124 26.8C124.442 26.8 124.8 26.4418 124.8 26C124.8 25.5582 124.442 25.2 124 25.2C123.558 25.2 123.2 25.5582 123.2 26C123.2 26.4418 123.558 26.8 124 26.8Z" fill="#D6D6D1"/>
<path id="Vector_36" d="M138 26.8C138.442 26.8 138.8 26.4418 138.8 26C138.8 25.5582 138.442 25.2 138 25.2C137.558 25.2 137.2 25.5582 137.2 26C137.2 26.4418 137.558 26.8 138 26.8Z" fill="#D6D6D1"/>
<path id="Vector_37" d="M152 26.8C152.442 26.8 152.8 26.4418 152.8 26C152.8 25.5582 152.442 25.2 152 25.2C151.558 25.2 151.2 25.5582 151.2 26C151.2 26.4418 151.558 26.8 152 26.8Z" fill="#D6D6D1"/>
<path id="Vector_38" d="M166 26.8C166.442 26.8 166.8 26.4418 166.8 26C166.8 25.5582 166.442 25.2 166 25.2C165.558 25.2 165.2 25.5582 165.2 26C165.2 26.4418 165.558 26.8 166 26.8Z" fill="#D6D6D1"/>
<path id="Vector_39" d="M180 26.8C180.442 26.8 180.8 26.4418 180.8 26C180.8 25.5582 180.442 25.2 180 25.2C179.558 25.2 179.2 25.5582 179.2 26C179.2 26.4418 179.558 26.8 180 26.8Z" fill="#D6D6D1"/>
<path id="Vector_40" d="M194 26.8C194.442 26.8 194.8 26.4418 194.8 26C194.8 25.5582 194.442 25.2 194 25.2C193.558 25.2 193.2 25.5582 193.2 26C193.2 26.4418 193.558 26.8 194 26.8Z" fill="#D6D6D1"/>
<path id="Vector_41" d="M208 26.8C208.442 26.8 208.8 26.4418 208.8 26C208.8 25.5582 208.442 25.2 208 25.2C207.558 25.2 207.2 25.5582 207.2 26C207.2 26.4418 207.558 26.8 208 26.8Z" fill="#D6D6D1"/>
<path id="Vector_42" d="M222 26.8C222.442 26.8 222.8 26.4418 222.8 26C222.8 25.5582 222.442 25.2 222 25.2C221.558 25.2 221.2 25.5582 221.2 26C221.2 26.4418 221.558 26.8 222 26.8Z" fill="#D6D6D1"/>
<path id="Vector_43" d="M236 26.8C236.442 26.8 236.8 26.4418 236.8 26C236.8 25.5582 236.442 25.2 236 25.2C235.558 25.2 235.2 25.5582 235.2 26C235.2 26.4418 235.558 26.8 236 26.8Z" fill="#D6D6D1"/>
<path id="Vector_44" d="M250 26.8C250.442 26.8 250.8 26.4418 250.8 26C250.8 25.5582 250.442 25.2 250 25.2C249.558 25.2 249.2 25.5582 249.2 26C249.2 26.4418 249.558 26.8 250 26.8Z" fill="#D6D6D1"/>
<path id="Vector_45" d="M264 26.8C264.442 26.8 264.8 26.4418 264.8 26C264.8 25.5582 264.442 25.2 264 25.2C263.558 25.2 263.2 25.5582 263.2 26C263.2 26.4418 263.558 26.8 264 26.8Z" fill="#D6D6D1"/>
<path id="Vector_46" d="M278 26.8C278.442 26.8 278.8 26.4418 278.8 26C278.8 25.5582 278.442 25.2 278 25.2C277.558 25.2 277.2 25.5582 277.2 26C277.2 26.4418 277.558 26.8 278 26.8Z" fill="#D6D6D1"/>
<path id="Vector_47" d="M292 26.8C292.442 26.8 292.8 26.4418 292.8 26C292.8 25.5582 292.442 25.2 292 25.2C291.558 25.2 291.2 25.5582 291.2 26C291.2 26.4418 291.558 26.8 292 26.8Z" fill="#D6D6D1"/>
<path id="Vector_48" d="M306 26.8C306.442 26.8 306.8 26.4418 306.8 26C306.8 25.5582 306.442 25.2 306 25.2C305.558 25.2 305.2 25.5582 305.2 26C305.2 26.4418 305.558 26.8 306 26.8Z" fill="#D6D6D1"/>
<path id="Vector_49" d="M320 26.8C320.442 26.8 320.8 26.4418 320.8 26C320.8 25.5582 320.442 25.2 320 25.2C319.558 25.2 319.2 25.5582 319.2 26C319.2 26.4418 319.558 26.8 320 26.8Z" fill="#D6D6D1"/>
<path id="Vector_50" d="M334 26.8C334.442 26.8 334.8 26.4418 334.8 26C334.8 25.5582 334.442 25.2 334 25.2C333.558 25.2 333.2 25.5582 333.2 26C333.2 26.4418 333.558 26.8 334 26.8Z" fill="#D6D6D1"/>
<path id="Vector_51" d="M348 26.8C348.442 26.8 348.8 26.4418 348.8 26C348.8 25.5582 348.442 25.2 348 25.2C347.558 25.2 347.2 25.5582 347.2 26C347.2 26.4418 347.558 26.8 348 26.8Z" fill="#D6D6D1"/>
<path id="Vector_52" d="M362 26.8C362.442 26.8 362.8 26.4418 362.8 26C362.8 25.5582 362.442 25.2 362 25.2C361.558 25.2 361.2 25.5582 361.2 26C361.2 26.4418 361.558 26.8 362 26.8Z" fill="#D6D6D1"/>
<path id="Vector_53" d="M12 40.8C12.4418 40.8 12.8 40.4418 12.8 40C12.8 39.5582 12.4418 39.2 12 39.2C11.5582 39.2 11.2 39.5582 11.2 40C11.2 40.4418 11.5582 40.8 12 40.8Z" fill="#D6D6D1"/>
<path id="Vector_54" d="M26 40.8C26.4418 40.8 26.8 40.4418 26.8 40C26.8 39.5582 26.4418 39.2 26 39.2C25.5582 39.2 25.2 39.5582 25.2 40C25.2 40.4418 25.5582 40.8 26 40.8Z" fill="#D6D6D1"/>
<path id="Vector_55" d="M40 40.8C40.4418 40.8 40.8 40.4418 40.8 40C40.8 39.5582 40.4418 39.2 40 39.2C39.5582 39.2 39.2 39.5582 39.2 40C39.2 40.4418 39.5582 40.8 40 40.8Z" fill="#D6D6D1"/>
<path id="Vector_56" d="M54 40.8C54.4418 40.8 54.8 40.4418 54.8 40C54.8 39.5582 54.4418 39.2 54 39.2C53.5582 39.2 53.2 39.5582 53.2 40C53.2 40.4418 53.5582 40.8 54 40.8Z" fill="#D6D6D1"/>
<path id="Vector_57" d="M68 40.8C68.4418 40.8 68.8 40.4418 68.8 40C68.8 39.5582 68.4418 39.2 68 39.2C67.5582 39.2 67.2 39.5582 67.2 40C67.2 40.4418 67.5582 40.8 68 40.8Z" fill="#D6D6D1"/>
<path id="Vector_58" d="M82 40.8C82.4418 40.8 82.8 40.4418 82.8 40C82.8 39.5582 82.4418 39.2 82 39.2C81.5582 39.2 81.2 39.5582 81.2 40C81.2 40.4418 81.5582 40.8 82 40.8Z" fill="#D6D6D1"/>
<path id="Vector_59" d="M96 40.8C96.4418 40.8 96.8 40.4418 96.8 40C96.8 39.5582 96.4418 39.2 96 39.2C95.5582 39.2 95.2 39.5582 95.2 40C95.2 40.4418 95.5582 40.8 96 40.8Z" fill="#D6D6D1"/>
<path id="Vector_60" d="M110 40.8C110.442 40.8 110.8 40.4418 110.8 40C110.8 39.5582 110.442 39.2 110 39.2C109.558 39.2 109.2 39.5582 109.2 40C109.2 40.4418 109.558 40.8 110 40.8Z" fill="#D6D6D1"/>
<path id="Vector_61" d="M124 40.8C124.442 40.8 124.8 40.4418 124.8 40C124.8 39.5582 124.442 39.2 124 39.2C123.558 39.2 123.2 39.5582 123.2 40C123.2 40.4418 123.558 40.8 124 40.8Z" fill="#D6D6D1"/>
<path id="Vector_62" d="M138 40.8C138.442 40.8 138.8 40.4418 138.8 40C138.8 39.5582 138.442 39.2 138 39.2C137.558 39.2 137.2 39.5582 137.2 40C137.2 40.4418 137.558 40.8 138 40.8Z" fill="#D6D6D1"/>
<path id="Vector_63" d="M152 40.8C152.442 40.8 152.8 40.4418 152.8 40C152.8 39.5582 152.442 39.2 152 39.2C151.558 39.2 151.2 39.5582 151.2 40C151.2 40.4418 151.558 40.8 152 40.8Z" fill="#D6D6D1"/>
<path id="Vector_64" d="M166 40.8C166.442 40.8 166.8 40.4418 166.8 40C166.8 39.5582 166.442 39.2 166 39.2C165.558 39.2 165.2 39.5582 165.2 40C165.2 40.4418 165.558 40.8 166 40.8Z" fill="#D6D6D1"/>
<path id="Vector_65" d="M180 40.8C180.442 40.8 180.8 40.4418 180.8 40C180.8 39.5582 180.442 39.2 180 39.2C179.558 39.2 179.2 39.5582 179.2 40C179.2 40.4418 179.558 40.8 180 40.8Z" fill="#D6D6D1"/>
<path id="Vector_66" d="M194 40.8C194.442 40.8 194.8 40.4418 194.8 40C194.8 39.5582 194.442 39.2 194 39.2C193.558 39.2 193.2 39.5582 193.2 40C193.2 40.4418 193.558 40.8 194 40.8Z" fill="#D6D6D1"/>
<path id="Vector_67" d="M208 40.8C208.442 40.8 208.8 40.4418 208.8 40C208.8 39.5582 208.442 39.2 208 39.2C207.558 39.2 207.2 39.5582 207.2 40C207.2 40.4418 207.558 40.8 208 40.8Z" fill="#D6D6D1"/>
<path id="Vector_68" d="M222 40.8C222.442 40.8 222.8 40.4418 222.8 40C222.8 39.5582 222.442 39.2 222 39.2C221.558 39.2 221.2 39.5582 221.2 40C221.2 40.4418 221.558 40.8 222 40.8Z" fill="#D6D6D1"/>
<path id="Vector_69" d="M236 40.8C236.442 40.8 236.8 40.4418 236.8 40C236.8 39.5582 236.442 39.2 236 39.2C235.558 39.2 235.2 39.5582 235.2 40C235.2 40.4418 235.558 40.8 236 40.8Z" fill="#D6D6D1"/>
<path id="Vector_70" d="M250 40.8C250.442 40.8 250.8 40.4418 250.8 40C250.8 39.5582 250.442 39.2 250 39.2C249.558 39.2 249.2 39.5582 249.2 40C249.2 40.4418 249.558 40.8 250 40.8Z" fill="#D6D6D1"/>
<path id="Vector_71" d="M264 40.8C264.442 40.8 264.8 40.4418 264.8 40C264.8 39.5582 264.442 39.2 264 39.2C263.558 39.2 263.2 39.5582 263.2 40C263.2 40.4418 263.558 40.8 264 40.8Z" fill="#D6D6D1"/>
<path id="Vector_72" d="M278 40.8C278.442 40.8 278.8 40.4418 278.8 40C278.8 39.5582 278.442 39.2 278 39.2C277.558 39.2 277.2 39.5582 277.2 40C277.2 40.4418 277.558 40.8 278 40.8Z" fill="#D6D6D1"/>
<path id="Vector_73" d="M292 40.8C292.442 40.8 292.8 40.4418 292.8 40C292.8 39.5582 292.442 39.2 292 39.2C291.558 39.2 291.2 39.5582 291.2 40C291.2 40.4418 291.558 40.8 292 40.8Z" fill="#D6D6D1"/>
<path id="Vector_74" d="M306 40.8C306.442 40.8 306.8 40.4418 306.8 40C306.8 39.5582 306.442 39.2 306 39.2C305.558 39.2 305.2 39.5582 305.2 40C305.2 40.4418 305.558 40.8 306 40.8Z" fill="#D6D6D1"/>
<path id="Vector_75" d="M320 40.8C320.442 40.8 320.8 40.4418 320.8 40C320.8 39.5582 320.442 39.2 320 39.2C319.558 39.2 319.2 39.5582 319.2 40C319.2 40.4418 319.558 40.8 320 40.8Z" fill="#D6D6D1"/>
<path id="Vector_76" d="M334 40.8C334.442 40.8 334.8 40.4418 334.8 40C334.8 39.5582 334.442 39.2 334 39.2C333.558 39.2 333.2 39.5582 333.2 40C333.2 40.4418 333.558 40.8 334 40.8Z" fill="#D6D6D1"/>
<path id="Vector_77" d="M348 40.8C348.442 40.8 348.8 40.4418 348.8 40C348.8 39.5582 348.442 39.2 348 39.2C347.558 39.2 347.2 39.5582 347.2 40C347.2 40.4418 347.558 40.8 348 40.8Z" fill="#D6D6D1"/>
<path id="Vector_78" d="M362 40.8C362.442 40.8 362.8 40.4418 362.8 40C362.8 39.5582 362.442 39.2 362 39.2C361.558 39.2 361.2 39.5582 361.2 40C361.2 40.4418 361.558 40.8 362 40.8Z" fill="#D6D6D1"/>
<path id="Vector_79" d="M12 54.8C12.4418 54.8 12.8 54.4418 12.8 54C12.8 53.5582 12.4418 53.2 12 53.2C11.5582 53.2 11.2 53.5582 11.2 54C11.2 54.4418 11.5582 54.8 12 54.8Z" fill="#D6D6D1"/>
<path id="Vector_80" d="M26 54.8C26.4418 54.8 26.8 54.4418 26.8 54C26.8 53.5582 26.4418 53.2 26 53.2C25.5582 53.2 25.2 53.5582 25.2 54C25.2 54.4418 25.5582 54.8 26 54.8Z" fill="#D6D6D1"/>
<path id="Vector_81" d="M40 54.8C40.4418 54.8 40.8 54.4418 40.8 54C40.8 53.5582 40.4418 53.2 40 53.2C39.5582 53.2 39.2 53.5582 39.2 54C39.2 54.4418 39.5582 54.8 40 54.8Z" fill="#D6D6D1"/>
<path id="Vector_82" d="M54 54.8C54.4418 54.8 54.8 54.4418 54.8 54C54.8 53.5582 54.4418 53.2 54 53.2C53.5582 53.2 53.2 53.5582 53.2 54C53.2 54.4418 53.5582 54.8 54 54.8Z" fill="#D6D6D1"/>
<path id="Vector_83" d="M68 54.8C68.4418 54.8 68.8 54.4418 68.8 54C68.8 53.5582 68.4418 53.2 68 53.2C67.5582 53.2 67.2 53.5582 67.2 54C67.2 54.4418 67.5582 54.8 68 54.8Z" fill="#D6D6D1"/>
<path id="Vector_84" d="M82 54.8C82.4418 54.8 82.8 54.4418 82.8 54C82.8 53.5582 82.4418 53.2 82 53.2C81.5582 53.2 81.2 53.5582 81.2 54C81.2 54.4418 81.5582 54.8 82 54.8Z" fill="#D6D6D1"/>
<path id="Vector_85" d="M96 54.8C96.4418 54.8 96.8 54.4418 96.8 54C96.8 53.5582 96.4418 53.2 96 53.2C95.5582 53.2 95.2 53.5582 95.2 54C95.2 54.4418 95.5582 54.8 96 54.8Z" fill="#D6D6D1"/>
<path id="Vector_86" d="M110 54.8C110.442 54.8 110.8 54.4418 110.8 54C110.8 53.5582 110.442 53.2 110 53.2C109.558 53.2 109.2 53.5582 109.2 54C109.2 54.4418 109.558 54.8 110 54.8Z" fill="#D6D6D1"/>
<path id="Vector_87" d="M124 54.8C124.442 54.8 124.8 54.4418 124.8 54C124.8 53.5582 124.442 53.2 124 53.2C123.558 53.2 123.2 53.5582 123.2 54C123.2 54.4418 123.558 54.8 124 54.8Z" fill="#D6D6D1"/>
<path id="Vector_88" d="M138 54.8C138.442 54.8 138.8 54.4418 138.8 54C138.8 53.5582 138.442 53.2 138 53.2C137.558 53.2 137.2 53.5582 137.2 54C137.2 54.4418 137.558 54.8 138 54.8Z" fill="#D6D6D1"/>
<path id="Vector_89" d="M152 54.8C152.442 54.8 152.8 54.4418 152.8 54C152.8 53.5582 152.442 53.2 152 53.2C151.558 53.2 151.2 53.5582 151.2 54C151.2 54.4418 151.558 54.8 152 54.8Z" fill="#D6D6D1"/>
<path id="Vector_90" d="M166 54.8C166.442 54.8 166.8 54.4418 166.8 54C166.8 53.5582 166.442 53.2 166 53.2C165.558 53.2 165.2 53.5582 165.2 54C165.2 54.4418 165.558 54.8 166 54.8Z" fill="#D6D6D1"/>
<path id="Vector_91" d="M180 54.8C180.442 54.8 180.8 54.4418 180.8 54C180.8 53.5582 180.442 53.2 180 53.2C179.558 53.2 179.2 53.5582 179.2 54C179.2 54.4418 179.558 54.8 180 54.8Z" fill="#D6D6D1"/>
<path id="Vector_92" d="M194 54.8C194.442 54.8 194.8 54.4418 194.8 54C194.8 53.5582 194.442 53.2 194 53.2C193.558 53.2 193.2 53.5582 193.2 54C193.2 54.4418 193.558 54.8 194 54.8Z" fill="#D6D6D1"/>
<path id="Vector_93" d="M208 54.8C208.442 54.8 208.8 54.4418 208.8 54C208.8 53.5582 208.442 53.2 208 53.2C207.558 53.2 207.2 53.5582 207.2 54C207.2 54.4418 207.558 54.8 208 54.8Z" fill="#D6D6D1"/>
<path id="Vector_94" d="M222 54.8C222.442 54.8 222.8 54.4418 222.8 54C222.8 53.5582 222.442 53.2 222 53.2C221.558 53.2 221.2 53.5582 221.2 54C221.2 54.4418 221.558 54.8 222 54.8Z" fill="#D6D6D1"/>
<path id="Vector_95" d="M236 54.8C236.442 54.8 236.8 54.4418 236.8 54C236.8 53.5582 236.442 53.2 236 53.2C235.558 53.2 235.2 53.5582 235.2 54C235.2 54.4418 235.558 54.8 236 54.8Z" fill="#D6D6D1"/>
<path id="Vector_96" d="M250 54.8C250.442 54.8 250.8 54.4418 250.8 54C250.8 53.5582 250.442 53.2 250 53.2C249.558 53.2 249.2 53.5582 249.2 54C249.2 54.4418 249.558 54.8 250 54.8Z" fill="#D6D6D1"/>
<path id="Vector_97" d="M264 54.8C264.442 54.8 264.8 54.4418 264.8 54C264.8 53.5582 264.442 53.2 264 53.2C263.558 53.2 263.2 53.5582 263.2 54C263.2 54.4418 263.558 54.8 264 54.8Z" fill="#D6D6D1"/>
<path id="Vector_98" d="M278 54.8C278.442 54.8 278.8 54.4418 278.8 54C278.8 53.5582 278.442 53.2 278 53.2C277.558 53.2 277.2 53.5582 277.2 54C277.2 54.4418 277.558 54.8 278 54.8Z" fill="#D6D6D1"/>
<path id="Vector_99" d="M292 54.8C292.442 54.8 292.8 54.4418 292.8 54C292.8 53.5582 292.442 53.2 292 53.2C291.558 53.2 291.2 53.5582 291.2 54C291.2 54.4418 291.558 54.8 292 54.8Z" fill="#D6D6D1"/>
<path id="Vector_100" d="M306 54.8C306.442 54.8 306.8 54.4418 306.8 54C306.8 53.5582 306.442 53.2 306 53.2C305.558 53.2 305.2 53.5582 305.2 54C305.2 54.4418 305.558 54.8 306 54.8Z" fill="#D6D6D1"/>
<path id="Vector_101" d="M320 54.8C320.442 54.8 320.8 54.4418 320.8 54C320.8 53.5582 320.442 53.2 320 53.2C319.558 53.2 319.2 53.5582 319.2 54C319.2 54.4418 319.558 54.8 320 54.8Z" fill="#D6D6D1"/>
<path id="Vector_102" d="M334 54.8C334.442 54.8 334.8 54.4418 334.8 54C334.8 53.5582 334.442 53.2 334 53.2C333.558 53.2 333.2 53.5582 333.2 54C333.2 54.4418 333.558 54.8 334 54.8Z" fill="#D6D6D1"/>
<path id="Vector_103" d="M348 54.8C348.442 54.8 348.8 54.4418 348.8 54C348.8 53.5582 348.442 53.2 348 53.2C347.558 53.2 347.2 53.5582 347.2 54C347.2 54.4418 347.558 54.8 348 54.8Z" fill="#D6D6D1"/>
<path id="Vector_104" d="M362 54.8C362.442 54.8 362.8 54.4418 362.8 54C362.8 53.5582 362.442 53.2 362 53.2C361.558 53.2 361.2 53.5582 361.2 54C361.2 54.4418 361.558 54.8 362 54.8Z" fill="#D6D6D1"/>
<path id="Vector_105" d="M12 68.8C12.4418 68.8 12.8 68.4418 12.8 68C12.8 67.5582 12.4418 67.2 12 67.2C11.5582 67.2 11.2 67.5582 11.2 68C11.2 68.4418 11.5582 68.8 12 68.8Z" fill="#D6D6D1"/>
<path id="Vector_106" d="M26 68.8C26.4418 68.8 26.8 68.4418 26.8 68C26.8 67.5582 26.4418 67.2 26 67.2C25.5582 67.2 25.2 67.5582 25.2 68C25.2 68.4418 25.5582 68.8 26 68.8Z" fill="#D6D6D1"/>
<path id="Vector_107" d="M40 68.8C40.4418 68.8 40.8 68.4418 40.8 68C40.8 67.5582 40.4418 67.2 40 67.2C39.5582 67.2 39.2 67.5582 39.2 68C39.2 68.4418 39.5582 68.8 40 68.8Z" fill="#D6D6D1"/>
<path id="Vector_108" d="M54 68.8C54.4418 68.8 54.8 68.4418 54.8 68C54.8 67.5582 54.4418 67.2 54 67.2C53.5582 67.2 53.2 67.5582 53.2 68C53.2 68.4418 53.5582 68.8 54 68.8Z" fill="#D6D6D1"/>
<path id="Vector_109" d="M68 68.8C68.4418 68.8 68.8 68.4418 68.8 68C68.8 67.5582 68.4418 67.2 68 67.2C67.5582 67.2 67.2 67.5582 67.2 68C67.2 68.4418 67.5582 68.8 68 68.8Z" fill="#D6D6D1"/>
<path id="Vector_110" d="M82 68.8C82.4418 68.8 82.8 68.4418 82.8 68C82.8 67.5582 82.4418 67.2 82 67.2C81.5582 67.2 81.2 67.5582 81.2 68C81.2 68.4418 81.5582 68.8 82 68.8Z" fill="#D6D6D1"/>
<path id="Vector_111" d="M96 68.8C96.4418 68.8 96.8 68.4418 96.8 68C96.8 67.5582 96.4418 67.2 96 67.2C95.5582 67.2 95.2 67.5582 95.2 68C95.2 68.4418 95.5582 68.8 96 68.8Z" fill="#D6D6D1"/>
<path id="Vector_112" d="M110 68.8C110.442 68.8 110.8 68.4418 110.8 68C110.8 67.5582 110.442 67.2 110 67.2C109.558 67.2 109.2 67.5582 109.2 68C109.2 68.4418 109.558 68.8 110 68.8Z" fill="#D6D6D1"/>
<path id="Vector_113" d="M124 68.8C124.442 68.8 124.8 68.4418 124.8 68C124.8 67.5582 124.442 67.2 124 67.2C123.558 67.2 123.2 67.5582 123.2 68C123.2 68.4418 123.558 68.8 124 68.8Z" fill="#D6D6D1"/>
<path id="Vector_114" d="M138 68.8C138.442 68.8 138.8 68.4418 138.8 68C138.8 67.5582 138.442 67.2 138 67.2C137.558 67.2 137.2 67.5582 137.2 68C137.2 68.4418 137.558 68.8 138 68.8Z" fill="#D6D6D1"/>
<path id="Vector_115" d="M152 68.8C152.442 68.8 152.8 68.4418 152.8 68C152.8 67.5582 152.442 67.2 152 67.2C151.558 67.2 151.2 67.5582 151.2 68C151.2 68.4418 151.558 68.8 152 68.8Z" fill="#D6D6D1"/>
<path id="Vector_116" d="M166 68.8C166.442 68.8 166.8 68.4418 166.8 68C166.8 67.5582 166.442 67.2 166 67.2C165.558 67.2 165.2 67.5582 165.2 68C165.2 68.4418 165.558 68.8 166 68.8Z" fill="#D6D6D1"/>
<path id="Vector_117" d="M180 68.8C180.442 68.8 180.8 68.4418 180.8 68C180.8 67.5582 180.442 67.2 180 67.2C179.558 67.2 179.2 67.5582 179.2 68C179.2 68.4418 179.558 68.8 180 68.8Z" fill="#D6D6D1"/>
<path id="Vector_118" d="M194 68.8C194.442 68.8 194.8 68.4418 194.8 68C194.8 67.5582 194.442 67.2 194 67.2C193.558 67.2 193.2 67.5582 193.2 68C193.2 68.4418 193.558 68.8 194 68.8Z" fill="#D6D6D1"/>
<path id="Vector_119" d="M208 68.8C208.442 68.8 208.8 68.4418 208.8 68C208.8 67.5582 208.442 67.2 208 67.2C207.558 67.2 207.2 67.5582 207.2 68C207.2 68.4418 207.558 68.8 208 68.8Z" fill="#D6D6D1"/>
<path id="Vector_120" d="M222 68.8C222.442 68.8 222.8 68.4418 222.8 68C222.8 67.5582 222.442 67.2 222 67.2C221.558 67.2 221.2 67.5582 221.2 68C221.2 68.4418 221.558 68.8 222 68.8Z" fill="#D6D6D1"/>
<path id="Vector_121" d="M236 68.8C236.442 68.8 236.8 68.4418 236.8 68C236.8 67.5582 236.442 67.2 236 67.2C235.558 67.2 235.2 67.5582 235.2 68C235.2 68.4418 235.558 68.8 236 68.8Z" fill="#D6D6D1"/>
<path id="Vector_122" d="M250 68.8C250.442 68.8 250.8 68.4418 250.8 68C250.8 67.5582 250.442 67.2 250 67.2C249.558 67.2 249.2 67.5582 249.2 68C249.2 68.4418 249.558 68.8 250 68.8Z" fill="#D6D6D1"/>
<path id="Vector_123" d="M264 68.8C264.442 68.8 264.8 68.4418 264.8 68C264.8 67.5582 264.442 67.2 264 67.2C263.558 67.2 263.2 67.5582 263.2 68C263.2 68.4418 263.558 68.8 264 68.8Z" fill="#D6D6D1"/>
<path id="Vector_124" d="M278 68.8C278.442 68.8 278.8 68.4418 278.8 68C278.8 67.5582 278.442 67.2 278 67.2C277.558 67.2 277.2 67.5582 277.2 68C277.2 68.4418 277.558 68.8 278 68.8Z" fill="#D6D6D1"/>
<path id="Vector_125" d="M292 68.8C292.442 68.8 292.8 68.4418 292.8 68C292.8 67.5582 292.442 67.2 292 67.2C291.558 67.2 291.2 67.5582 291.2 68C291.2 68.4418 291.558 68.8 292 68.8Z" fill="#D6D6D1"/>
<path id="Vector_126" d="M306 68.8C306.442 68.8 306.8 68.4418 306.8 68C306.8 67.5582 306.442 67.2 306 67.2C305.558 67.2 305.2 67.5582 305.2 68C305.2 68.4418 305.558 68.8 306 68.8Z" fill="#D6D6D1"/>
<path id="Vector_127" d="M320 68.8C320.442 68.8 320.8 68.4418 320.8 68C320.8 67.5582 320.442 67.2 320 67.2C319.558 67.2 319.2 67.5582 319.2 68C319.2 68.4418 319.558 68.8 320 68.8Z" fill="#D6D6D1"/>
<path id="Vector_128" d="M334 68.8C334.442 68.8 334.8 68.4418 334.8 68C334.8 67.5582 334.442 67.2 334 67.2C333.558 67.2 333.2 67.5582 333.2 68C333.2 68.4418 333.558 68.8 334 68.8Z" fill="#D6D6D1"/>
<path id="Vector_129" d="M348 68.8C348.442 68.8 348.8 68.4418 348.8 68C348.8 67.5582 348.442 67.2 348 67.2C347.558 67.2 347.2 67.5582 347.2 68C347.2 68.4418 347.558 68.8 348 68.8Z" fill="#D6D6D1"/>
<path id="Vector_130" d="M362 68.8C362.442 68.8 362.8 68.4418 362.8 68C362.8 67.5582 362.442 67.2 362 67.2C361.558 67.2 361.2 67.5582 361.2 68C361.2 68.4418 361.558 68.8 362 68.8Z" fill="#D6D6D1"/>
<path id="Vector_131" d="M12 82.8C12.4418 82.8 12.8 82.4418 12.8 82C12.8 81.5582 12.4418 81.2 12 81.2C11.5582 81.2 11.2 81.5582 11.2 82C11.2 82.4418 11.5582 82.8 12 82.8Z" fill="#D6D6D1"/>
<path id="Vector_132" d="M26 82.8C26.4418 82.8 26.8 82.4418 26.8 82C26.8 81.5582 26.4418 81.2 26 81.2C25.5582 81.2 25.2 81.5582 25.2 82C25.2 82.4418 25.5582 82.8 26 82.8Z" fill="#D6D6D1"/>
<path id="Vector_133" d="M40 82.8C40.4418 82.8 40.8 82.4418 40.8 82C40.8 81.5582 40.4418 81.2 40 81.2C39.5582 81.2 39.2 81.5582 39.2 82C39.2 82.4418 39.5582 82.8 40 82.8Z" fill="#D6D6D1"/>
<path id="Vector_134" d="M54 82.8C54.4418 82.8 54.8 82.4418 54.8 82C54.8 81.5582 54.4418 81.2 54 81.2C53.5582 81.2 53.2 81.5582 53.2 82C53.2 82.4418 53.5582 82.8 54 82.8Z" fill="#D6D6D1"/>
<path id="Vector_135" d="M68 82.8C68.4418 82.8 68.8 82.4418 68.8 82C68.8 81.5582 68.4418 81.2 68 81.2C67.5582 81.2 67.2 81.5582 67.2 82C67.2 82.4418 67.5582 82.8 68 82.8Z" fill="#D6D6D1"/>
<path id="Vector_136" d="M82 82.8C82.4418 82.8 82.8 82.4418 82.8 82C82.8 81.5582 82.4418 81.2 82 81.2C81.5582 81.2 81.2 81.5582 81.2 82C81.2 82.4418 81.5582 82.8 82 82.8Z" fill="#D6D6D1"/>
<path id="Vector_137" d="M96 82.8C96.4418 82.8 96.8 82.4418 96.8 82C96.8 81.5582 96.4418 81.2 96 81.2C95.5582 81.2 95.2 81.5582 95.2 82C95.2 82.4418 95.5582 82.8 96 82.8Z" fill="#D6D6D1"/>
<path id="Vector_138" d="M110 82.8C110.442 82.8 110.8 82.4418 110.8 82C110.8 81.5582 110.442 81.2 110 81.2C109.558 81.2 109.2 81.5582 109.2 82C109.2 82.4418 109.558 82.8 110 82.8Z" fill="#D6D6D1"/>
<path id="Vector_139" d="M124 82.8C124.442 82.8 124.8 82.4418 124.8 82C124.8 81.5582 124.442 81.2 124 81.2C123.558 81.2 123.2 81.5582 123.2 82C123.2 82.4418 123.558 82.8 124 82.8Z" fill="#D6D6D1"/>
<path id="Vector_140" d="M138 82.8C138.442 82.8 138.8 82.4418 138.8 82C138.8 81.5582 138.442 81.2 138 81.2C137.558 81.2 137.2 81.5582 137.2 82C137.2 82.4418 137.558 82.8 138 82.8Z" fill="#D6D6D1"/>
<path id="Vector_141" d="M152 82.8C152.442 82.8 152.8 82.4418 152.8 82C152.8 81.5582 152.442 81.2 152 81.2C151.558 81.2 151.2 81.5582 151.2 82C151.2 82.4418 151.558 82.8 152 82.8Z" fill="#D6D6D1"/>
<path id="Vector_142" d="M166 82.8C166.442 82.8 166.8 82.4418 166.8 82C166.8 81.5582 166.442 81.2 166 81.2C165.558 81.2 165.2 81.5582 165.2 82C165.2 82.4418 165.558 82.8 166 82.8Z" fill="#D6D6D1"/>
<path id="Vector_143" d="M180 82.8C180.442 82.8 180.8 82.4418 180.8 82C180.8 81.5582 180.442 81.2 180 81.2C179.558 81.2 179.2 81.5582 179.2 82C179.2 82.4418 179.558 82.8 180 82.8Z" fill="#D6D6D1"/>
<path id="Vector_144" d="M194 82.8C194.442 82.8 194.8 82.4418 194.8 82C194.8 81.5582 194.442 81.2 194 81.2C193.558 81.2 193.2 81.5582 193.2 82C193.2 82.4418 193.558 82.8 194 82.8Z" fill="#D6D6D1"/>
<path id="Vector_145" d="M208 82.8C208.442 82.8 208.8 82.4418 208.8 82C208.8 81.5582 208.442 81.2 208 81.2C207.558 81.2 207.2 81.5582 207.2 82C207.2 82.4418 207.558 82.8 208 82.8Z" fill="#D6D6D1"/>
<path id="Vector_146" d="M222 82.8C222.442 82.8 222.8 82.4418 222.8 82C222.8 81.5582 222.442 81.2 222 81.2C221.558 81.2 221.2 81.5582 221.2 82C221.2 82.4418 221.558 82.8 222 82.8Z" fill="#D6D6D1"/>
<path id="Vector_147" d="M236 82.8C236.442 82.8 236.8 82.4418 236.8 82C236.8 81.5582 236.442 81.2 236 81.2C235.558 81.2 235.2 81.5582 235.2 82C235.2 82.4418 235.558 82.8 236 82.8Z" fill="#D6D6D1"/>
<path id="Vector_148" d="M250 82.8C250.442 82.8 250.8 82.4418 250.8 82C250.8 81.5582 250.442 81.2 250 81.2C249.558 81.2 249.2 81.5582 249.2 82C249.2 82.4418 249.558 82.8 250 82.8Z" fill="#D6D6D1"/>
<path id="Vector_149" d="M264 82.8C264.442 82.8 264.8 82.4418 264.8 82C264.8 81.5582 264.442 81.2 264 81.2C263.558 81.2 263.2 81.5582 263.2 82C263.2 82.4418 263.558 82.8 264 82.8Z" fill="#D6D6D1"/>
<path id="Vector_150" d="M278 82.8C278.442 82.8 278.8 82.4418 278.8 82C278.8 81.5582 278.442 81.2 278 81.2C277.558 81.2 277.2 81.5582 277.2 82C277.2 82.4418 277.558 82.8 278 82.8Z" fill="#D6D6D1"/>
<path id="Vector_151" d="M292 82.8C292.442 82.8 292.8 82.4418 292.8 82C292.8 81.5582 292.442 81.2 292 81.2C291.558 81.2 291.2 81.5582 291.2 82C291.2 82.4418 291.558 82.8 292 82.8Z" fill="#D6D6D1"/>
<path id="Vector_152" d="M306 82.8C306.442 82.8 306.8 82.4418 306.8 82C306.8 81.5582 306.442 81.2 306 81.2C305.558 81.2 305.2 81.5582 305.2 82C305.2 82.4418 305.558 82.8 306 82.8Z" fill="#D6D6D1"/>
<path id="Vector_153" d="M320 82.8C320.442 82.8 320.8 82.4418 320.8 82C320.8 81.5582 320.442 81.2 320 81.2C319.558 81.2 319.2 81.5582 319.2 82C319.2 82.4418 319.558 82.8 320 82.8Z" fill="#D6D6D1"/>
<path id="Vector_154" d="M334 82.8C334.442 82.8 334.8 82.4418 334.8 82C334.8 81.5582 334.442 81.2 334 81.2C333.558 81.2 333.2 81.5582 333.2 82C333.2 82.4418 333.558 82.8 334 82.8Z" fill="#D6D6D1"/>
<path id="Vector_155" d="M348 82.8C348.442 82.8 348.8 82.4418 348.8 82C348.8 81.5582 348.442 81.2 348 81.2C347.558 81.2 347.2 81.5582 347.2 82C347.2 82.4418 347.558 82.8 348 82.8Z" fill="#D6D6D1"/>
<path id="Vector_156" d="M362 82.8C362.442 82.8 362.8 82.4418 362.8 82C362.8 81.5582 362.442 81.2 362 81.2C361.558 81.2 361.2 81.5582 361.2 82C361.2 82.4418 361.558 82.8 362 82.8Z" fill="#D6D6D1"/>
<path id="Vector_157" d="M12 96.8C12.4418 96.8 12.8 96.4418 12.8 96C12.8 95.5582 12.4418 95.2 12 95.2C11.5582 95.2 11.2 95.5582 11.2 96C11.2 96.4418 11.5582 96.8 12 96.8Z" fill="#D6D6D1"/>
<path id="Vector_158" d="M26 96.8C26.4418 96.8 26.8 96.4418 26.8 96C26.8 95.5582 26.4418 95.2 26 95.2C25.5582 95.2 25.2 95.5582 25.2 96C25.2 96.4418 25.5582 96.8 26 96.8Z" fill="#D6D6D1"/>
<path id="Vector_159" d="M40 96.8C40.4418 96.8 40.8 96.4418 40.8 96C40.8 95.5582 40.4418 95.2 40 95.2C39.5582 95.2 39.2 95.5582 39.2 96C39.2 96.4418 39.5582 96.8 40 96.8Z" fill="#D6D6D1"/>
<path id="Vector_160" d="M54 96.8C54.4418 96.8 54.8 96.4418 54.8 96C54.8 95.5582 54.4418 95.2 54 95.2C53.5582 95.2 53.2 95.5582 53.2 96C53.2 96.4418 53.5582 96.8 54 96.8Z" fill="#D6D6D1"/>
<path id="Vector_161" d="M68 96.8C68.4418 96.8 68.8 96.4418 68.8 96C68.8 95.5582 68.4418 95.2 68 95.2C67.5582 95.2 67.2 95.5582 67.2 96C67.2 96.4418 67.5582 96.8 68 96.8Z" fill="#D6D6D1"/>
<path id="Vector_162" d="M82 96.8C82.4418 96.8 82.8 96.4418 82.8 96C82.8 95.5582 82.4418 95.2 82 95.2C81.5582 95.2 81.2 95.5582 81.2 96C81.2 96.4418 81.5582 96.8 82 96.8Z" fill="#D6D6D1"/>
<path id="Vector_163" d="M96 96.8C96.4418 96.8 96.8 96.4418 96.8 96C96.8 95.5582 96.4418 95.2 96 95.2C95.5582 95.2 95.2 95.5582 95.2 96C95.2 96.4418 95.5582 96.8 96 96.8Z" fill="#D6D6D1"/>
<path id="Vector_164" d="M110 96.8C110.442 96.8 110.8 96.4418 110.8 96C110.8 95.5582 110.442 95.2 110 95.2C109.558 95.2 109.2 95.5582 109.2 96C109.2 96.4418 109.558 96.8 110 96.8Z" fill="#D6D6D1"/>
<path id="Vector_165" d="M124 96.8C124.442 96.8 124.8 96.4418 124.8 96C124.8 95.5582 124.442 95.2 124 95.2C123.558 95.2 123.2 95.5582 123.2 96C123.2 96.4418 123.558 96.8 124 96.8Z" fill="#D6D6D1"/>
<path id="Vector_166" d="M138 96.8C138.442 96.8 138.8 96.4418 138.8 96C138.8 95.5582 138.442 95.2 138 95.2C137.558 95.2 137.2 95.5582 137.2 96C137.2 96.4418 137.558 96.8 138 96.8Z" fill="#D6D6D1"/>
<path id="Vector_167" d="M152 96.8C152.442 96.8 152.8 96.4418 152.8 96C152.8 95.5582 152.442 95.2 152 95.2C151.558 95.2 151.2 95.5582 151.2 96C151.2 96.4418 151.558 96.8 152 96.8Z" fill="#D6D6D1"/>
<path id="Vector_168" d="M166 96.8C166.442 96.8 166.8 96.4418 166.8 96C166.8 95.5582 166.442 95.2 166 95.2C165.558 95.2 165.2 95.5582 165.2 96C165.2 96.4418 165.558 96.8 166 96.8Z" fill="#D6D6D1"/>
<path id="Vector_169" d="M180 96.8C180.442 96.8 180.8 96.4418 180.8 96C180.8 95.5582 180.442 95.2 180 95.2C179.558 95.2 179.2 95.5582 179.2 96C179.2 96.4418 179.558 96.8 180 96.8Z" fill="#D6D6D1"/>
<path id="Vector_170" d="M194 96.8C194.442 96.8 194.8 96.4418 194.8 96C194.8 95.5582 194.442 95.2 194 95.2C193.558 95.2 193.2 95.5582 193.2 96C193.2 96.4418 193.558 96.8 194 96.8Z" fill="#D6D6D1"/>
<path id="Vector_171" d="M208 96.8C208.442 96.8 208.8 96.4418 208.8 96C208.8 95.5582 208.442 95.2 208 95.2C207.558 95.2 207.2 95.5582 207.2 96C207.2 96.4418 207.558 96.8 208 96.8Z" fill="#D6D6D1"/>
<path id="Vector_172" d="M222 96.8C222.442 96.8 222.8 96.4418 222.8 96C222.8 95.5582 222.442 95.2 222 95.2C221.558 95.2 221.2 95.5582 221.2 96C221.2 96.4418 221.558 96.8 222 96.8Z" fill="#D6D6D1"/>
<path id="Vector_173" d="M236 96.8C236.442 96.8 236.8 96.4418 236.8 96C236.8 95.5582 236.442 95.2 236 95.2C235.558 95.2 235.2 95.5582 235.2 96C235.2 96.4418 235.558 96.8 236 96.8Z" fill="#D6D6D1"/>
<path id="Vector_174" d="M250 96.8C250.442 96.8 250.8 96.4418 250.8 96C250.8 95.5582 250.442 95.2 250 95.2C249.558 95.2 249.2 95.5582 249.2 96C249.2 96.4418 249.558 96.8 250 96.8Z" fill="#D6D6D1"/>
<path id="Vector_175" d="M264 96.8C264.442 96.8 264.8 96.4418 264.8 96C264.8 95.5582 264.442 95.2 264 95.2C263.558 95.2 263.2 95.5582 263.2 96C263.2 96.4418 263.558 96.8 264 96.8Z" fill="#D6D6D1"/>
<path id="Vector_176" d="M278 96.8C278.442 96.8 278.8 96.4418 278.8 96C278.8 95.5582 278.442 95.2 278 95.2C277.558 95.2 277.2 95.5582 277.2 96C277.2 96.4418 277.558 96.8 278 96.8Z" fill="#D6D6D1"/>
<path id="Vector_177" d="M292 96.8C292.442 96.8 292.8 96.4418 292.8 96C292.8 95.5582 292.442 95.2 292 95.2C291.558 95.2 291.2 95.5582 291.2 96C291.2 96.4418 291.558 96.8 292 96.8Z" fill="#D6D6D1"/>
<path id="Vector_178" d="M306 96.8C306.442 96.8 306.8 96.4418 306.8 96C306.8 95.5582 306.442 95.2 306 95.2C305.558 95.2 305.2 95.5582 305.2 96C305.2 96.4418 305.558 96.8 306 96.8Z" fill="#D6D6D1"/>
<path id="Vector_179" d="M320 96.8C320.442 96.8 320.8 96.4418 320.8 96C320.8 95.5582 320.442 95.2 320 95.2C319.558 95.2 319.2 95.5582 319.2 96C319.2 96.4418 319.558 96.8 320 96.8Z" fill="#D6D6D1"/>
<path id="Vector_180" d="M334 96.8C334.442 96.8 334.8 96.4418 334.8 96C334.8 95.5582 334.442 95.2 334 95.2C333.558 95.2 333.2 95.5582 333.2 96C333.2 96.4418 333.558 96.8 334 96.8Z" fill="#D6D6D1"/>
<path id="Vector_181" d="M348 96.8C348.442 96.8 348.8 96.4418 348.8 96C348.8 95.5582 348.442 95.2 348 95.2C347.558 95.2 347.2 95.5582 347.2 96C347.2 96.4418 347.558 96.8 348 96.8Z" fill="#D6D6D1"/>
<path id="Vector_182" d="M362 96.8C362.442 96.8 362.8 96.4418 362.8 96C362.8 95.5582 362.442 95.2 362 95.2C361.558 95.2 361.2 95.5582 361.2 96C361.2 96.4418 361.558 96.8 362 96.8Z" fill="#D6D6D1"/>
<path id="Vector_183" d="M12 110.8C12.4418 110.8 12.8 110.442 12.8 110C12.8 109.558 12.4418 109.2 12 109.2C11.5582 109.2 11.2 109.558 11.2 110C11.2 110.442 11.5582 110.8 12 110.8Z" fill="#D6D6D1"/>
<path id="Vector_184" d="M26 110.8C26.4418 110.8 26.8 110.442 26.8 110C26.8 109.558 26.4418 109.2 26 109.2C25.5582 109.2 25.2 109.558 25.2 110C25.2 110.442 25.5582 110.8 26 110.8Z" fill="#D6D6D1"/>
<path id="Vector_185" d="M40 110.8C40.4418 110.8 40.8 110.442 40.8 110C40.8 109.558 40.4418 109.2 40 109.2C39.5582 109.2 39.2 109.558 39.2 110C39.2 110.442 39.5582 110.8 40 110.8Z" fill="#D6D6D1"/>
<path id="Vector_186" d="M54 110.8C54.4418 110.8 54.8 110.442 54.8 110C54.8 109.558 54.4418 109.2 54 109.2C53.5582 109.2 53.2 109.558 53.2 110C53.2 110.442 53.5582 110.8 54 110.8Z" fill="#D6D6D1"/>
<path id="Vector_187" d="M68 110.8C68.4418 110.8 68.8 110.442 68.8 110C68.8 109.558 68.4418 109.2 68 109.2C67.5582 109.2 67.2 109.558 67.2 110C67.2 110.442 67.5582 110.8 68 110.8Z" fill="#D6D6D1"/>
<path id="Vector_188" d="M82 110.8C82.4418 110.8 82.8 110.442 82.8 110C82.8 109.558 82.4418 109.2 82 109.2C81.5582 109.2 81.2 109.558 81.2 110C81.2 110.442 81.5582 110.8 82 110.8Z" fill="#D6D6D1"/>
<path id="Vector_189" d="M96 110.8C96.4418 110.8 96.8 110.442 96.8 110C96.8 109.558 96.4418 109.2 96 109.2C95.5582 109.2 95.2 109.558 95.2 110C95.2 110.442 95.5582 110.8 96 110.8Z" fill="#D6D6D1"/>
<path id="Vector_190" d="M110 110.8C110.442 110.8 110.8 110.442 110.8 110C110.8 109.558 110.442 109.2 110 109.2C109.558 109.2 109.2 109.558 109.2 110C109.2 110.442 109.558 110.8 110 110.8Z" fill="#D6D6D1"/>
<path id="Vector_191" d="M124 110.8C124.442 110.8 124.8 110.442 124.8 110C124.8 109.558 124.442 109.2 124 109.2C123.558 109.2 123.2 109.558 123.2 110C123.2 110.442 123.558 110.8 124 110.8Z" fill="#D6D6D1"/>
<path id="Vector_192" d="M138 110.8C138.442 110.8 138.8 110.442 138.8 110C138.8 109.558 138.442 109.2 138 109.2C137.558 109.2 137.2 109.558 137.2 110C137.2 110.442 137.558 110.8 138 110.8Z" fill="#D6D6D1"/>
<path id="Vector_193" d="M152 110.8C152.442 110.8 152.8 110.442 152.8 110C152.8 109.558 152.442 109.2 152 109.2C151.558 109.2 151.2 109.558 151.2 110C151.2 110.442 151.558 110.8 152 110.8Z" fill="#D6D6D1"/>
<path id="Vector_194" d="M166 110.8C166.442 110.8 166.8 110.442 166.8 110C166.8 109.558 166.442 109.2 166 109.2C165.558 109.2 165.2 109.558 165.2 110C165.2 110.442 165.558 110.8 166 110.8Z" fill="#D6D6D1"/>
<path id="Vector_195" d="M180 110.8C180.442 110.8 180.8 110.442 180.8 110C180.8 109.558 180.442 109.2 180 109.2C179.558 109.2 179.2 109.558 179.2 110C179.2 110.442 179.558 110.8 180 110.8Z" fill="#D6D6D1"/>
<path id="Vector_196" d="M194 110.8C194.442 110.8 194.8 110.442 194.8 110C194.8 109.558 194.442 109.2 194 109.2C193.558 109.2 193.2 109.558 193.2 110C193.2 110.442 193.558 110.8 194 110.8Z" fill="#D6D6D1"/>
<path id="Vector_197" d="M208 110.8C208.442 110.8 208.8 110.442 208.8 110C208.8 109.558 208.442 109.2 208 109.2C207.558 109.2 207.2 109.558 207.2 110C207.2 110.442 207.558 110.8 208 110.8Z" fill="#D6D6D1"/>
<path id="Vector_198" d="M222 110.8C222.442 110.8 222.8 110.442 222.8 110C222.8 109.558 222.442 109.2 222 109.2C221.558 109.2 221.2 109.558 221.2 110C221.2 110.442 221.558 110.8 222 110.8Z" fill="#D6D6D1"/>
<path id="Vector_199" d="M236 110.8C236.442 110.8 236.8 110.442 236.8 110C236.8 109.558 236.442 109.2 236 109.2C235.558 109.2 235.2 109.558 235.2 110C235.2 110.442 235.558 110.8 236 110.8Z" fill="#D6D6D1"/>
<path id="Vector_200" d="M250 110.8C250.442 110.8 250.8 110.442 250.8 110C250.8 109.558 250.442 109.2 250 109.2C249.558 109.2 249.2 109.558 249.2 110C249.2 110.442 249.558 110.8 250 110.8Z" fill="#D6D6D1"/>
<path id="Vector_201" d="M264 110.8C264.442 110.8 264.8 110.442 264.8 110C264.8 109.558 264.442 109.2 264 109.2C263.558 109.2 263.2 109.558 263.2 110C263.2 110.442 263.558 110.8 264 110.8Z" fill="#D6D6D1"/>
<path id="Vector_202" d="M278 110.8C278.442 110.8 278.8 110.442 278.8 110C278.8 109.558 278.442 109.2 278 109.2C277.558 109.2 277.2 109.558 277.2 110C277.2 110.442 277.558 110.8 278 110.8Z" fill="#D6D6D1"/>
<path id="Vector_203" d="M292 110.8C292.442 110.8 292.8 110.442 292.8 110C292.8 109.558 292.442 109.2 292 109.2C291.558 109.2 291.2 109.558 291.2 110C291.2 110.442 291.558 110.8 292 110.8Z" fill="#D6D6D1"/>
<path id="Vector_204" d="M306 110.8C306.442 110.8 306.8 110.442 306.8 110C306.8 109.558 306.442 109.2 306 109.2C305.558 109.2 305.2 109.558 305.2 110C305.2 110.442 305.558 110.8 306 110.8Z" fill="#D6D6D1"/>
<path id="Vector_205" d="M320 110.8C320.442 110.8 320.8 110.442 320.8 110C320.8 109.558 320.442 109.2 320 109.2C319.558 109.2 319.2 109.558 319.2 110C319.2 110.442 319.558 110.8 320 110.8Z" fill="#D6D6D1"/>
<path id="Vector_206" d="M334 110.8C334.442 110.8 334.8 110.442 334.8 110C334.8 109.558 334.442 109.2 334 109.2C333.558 109.2 333.2 109.558 333.2 110C333.2 110.442 333.558 110.8 334 110.8Z" fill="#D6D6D1"/>
<path id="Vector_207" d="M348 110.8C348.442 110.8 348.8 110.442 348.8 110C348.8 109.558 348.442 109.2 348 109.2C347.558 109.2 347.2 109.558 347.2 110C347.2 110.442 347.558 110.8 348 110.8Z" fill="#D6D6D1"/>
<path id="Vector_208" d="M362 110.8C362.442 110.8 362.8 110.442 362.8 110C362.8 109.558 362.442 109.2 362 109.2C361.558 109.2 361.2 109.558 361.2 110C361.2 110.442 361.558 110.8 362 110.8Z" fill="#D6D6D1"/>
<path id="Vector_209" d="M12 124.8C12.4418 124.8 12.8 124.442 12.8 124C12.8 123.558 12.4418 123.2 12 123.2C11.5582 123.2 11.2 123.558 11.2 124C11.2 124.442 11.5582 124.8 12 124.8Z" fill="#D6D6D1"/>
<path id="Vector_210" d="M26 124.8C26.4418 124.8 26.8 124.442 26.8 124C26.8 123.558 26.4418 123.2 26 123.2C25.5582 123.2 25.2 123.558 25.2 124C25.2 124.442 25.5582 124.8 26 124.8Z" fill="#D6D6D1"/>
<path id="Vector_211" d="M40 124.8C40.4418 124.8 40.8 124.442 40.8 124C40.8 123.558 40.4418 123.2 40 123.2C39.5582 123.2 39.2 123.558 39.2 124C39.2 124.442 39.5582 124.8 40 124.8Z" fill="#D6D6D1"/>
<path id="Vector_212" d="M54 124.8C54.4418 124.8 54.8 124.442 54.8 124C54.8 123.558 54.4418 123.2 54 123.2C53.5582 123.2 53.2 123.558 53.2 124C53.2 124.442 53.5582 124.8 54 124.8Z" fill="#D6D6D1"/>
<path id="Vector_213" d="M68 124.8C68.4418 124.8 68.8 124.442 68.8 124C68.8 123.558 68.4418 123.2 68 123.2C67.5582 123.2 67.2 123.558 67.2 124C67.2 124.442 67.5582 124.8 68 124.8Z" fill="#D6D6D1"/>
<path id="Vector_214" d="M82 124.8C82.4418 124.8 82.8 124.442 82.8 124C82.8 123.558 82.4418 123.2 82 123.2C81.5582 123.2 81.2 123.558 81.2 124C81.2 124.442 81.5582 124.8 82 124.8Z" fill="#D6D6D1"/>
<path id="Vector_215" d="M96 124.8C96.4418 124.8 96.8 124.442 96.8 124C96.8 123.558 96.4418 123.2 96 123.2C95.5582 123.2 95.2 123.558 95.2 124C95.2 124.442 95.5582 124.8 96 124.8Z" fill="#D6D6D1"/>
<path id="Vector_216" d="M110 124.8C110.442 124.8 110.8 124.442 110.8 124C110.8 123.558 110.442 123.2 110 123.2C109.558 123.2 109.2 123.558 109.2 124C109.2 124.442 109.558 124.8 110 124.8Z" fill="#D6D6D1"/>
<path id="Vector_217" d="M124 124.8C124.442 124.8 124.8 124.442 124.8 124C124.8 123.558 124.442 123.2 124 123.2C123.558 123.2 123.2 123.558 123.2 124C123.2 124.442 123.558 124.8 124 124.8Z" fill="#D6D6D1"/>
<path id="Vector_218" d="M138 124.8C138.442 124.8 138.8 124.442 138.8 124C138.8 123.558 138.442 123.2 138 123.2C137.558 123.2 137.2 123.558 137.2 124C137.2 124.442 137.558 124.8 138 124.8Z" fill="#D6D6D1"/>
<path id="Vector_219" d="M152 124.8C152.442 124.8 152.8 124.442 152.8 124C152.8 123.558 152.442 123.2 152 123.2C151.558 123.2 151.2 123.558 151.2 124C151.2 124.442 151.558 124.8 152 124.8Z" fill="#D6D6D1"/>
<path id="Vector_220" d="M166 124.8C166.442 124.8 166.8 124.442 166.8 124C166.8 123.558 166.442 123.2 166 123.2C165.558 123.2 165.2 123.558 165.2 124C165.2 124.442 165.558 124.8 166 124.8Z" fill="#D6D6D1"/>
<path id="Vector_221" d="M180 124.8C180.442 124.8 180.8 124.442 180.8 124C180.8 123.558 180.442 123.2 180 123.2C179.558 123.2 179.2 123.558 179.2 124C179.2 124.442 179.558 124.8 180 124.8Z" fill="#D6D6D1"/>
<path id="Vector_222" d="M194 124.8C194.442 124.8 194.8 124.442 194.8 124C194.8 123.558 194.442 123.2 194 123.2C193.558 123.2 193.2 123.558 193.2 124C193.2 124.442 193.558 124.8 194 124.8Z" fill="#D6D6D1"/>
<path id="Vector_223" d="M208 124.8C208.442 124.8 208.8 124.442 208.8 124C208.8 123.558 208.442 123.2 208 123.2C207.558 123.2 207.2 123.558 207.2 124C207.2 124.442 207.558 124.8 208 124.8Z" fill="#D6D6D1"/>
<path id="Vector_224" d="M222 124.8C222.442 124.8 222.8 124.442 222.8 124C222.8 123.558 222.442 123.2 222 123.2C221.558 123.2 221.2 123.558 221.2 124C221.2 124.442 221.558 124.8 222 124.8Z" fill="#D6D6D1"/>
<path id="Vector_225" d="M236 124.8C236.442 124.8 236.8 124.442 236.8 124C236.8 123.558 236.442 123.2 236 123.2C235.558 123.2 235.2 123.558 235.2 124C235.2 124.442 235.558 124.8 236 124.8Z" fill="#D6D6D1"/>
<path id="Vector_226" d="M250 124.8C250.442 124.8 250.8 124.442 250.8 124C250.8 123.558 250.442 123.2 250 123.2C249.558 123.2 249.2 123.558 249.2 124C249.2 124.442 249.558 124.8 250 124.8Z" fill="#D6D6D1"/>
<path id="Vector_227" d="M264 124.8C264.442 124.8 264.8 124.442 264.8 124C264.8 123.558 264.442 123.2 264 123.2C263.558 123.2 263.2 123.558 263.2 124C263.2 124.442 263.558 124.8 264 124.8Z" fill="#D6D6D1"/>
<path id="Vector_228" d="M278 124.8C278.442 124.8 278.8 124.442 278.8 124C278.8 123.558 278.442 123.2 278 123.2C277.558 123.2 277.2 123.558 277.2 124C277.2 124.442 277.558 124.8 278 124.8Z" fill="#D6D6D1"/>
<path id="Vector_229" d="M292 124.8C292.442 124.8 292.8 124.442 292.8 124C292.8 123.558 292.442 123.2 292 123.2C291.558 123.2 291.2 123.558 291.2 124C291.2 124.442 291.558 124.8 292 124.8Z" fill="#D6D6D1"/>
<path id="Vector_230" d="M306 124.8C306.442 124.8 306.8 124.442 306.8 124C306.8 123.558 306.442 123.2 306 123.2C305.558 123.2 305.2 123.558 305.2 124C305.2 124.442 305.558 124.8 306 124.8Z" fill="#D6D6D1"/>
<path id="Vector_231" d="M320 124.8C320.442 124.8 320.8 124.442 320.8 124C320.8 123.558 320.442 123.2 320 123.2C319.558 123.2 319.2 123.558 319.2 124C319.2 124.442 319.558 124.8 320 124.8Z" fill="#D6D6D1"/>
<path id="Vector_232" d="M334 124.8C334.442 124.8 334.8 124.442 334.8 124C334.8 123.558 334.442 123.2 334 123.2C333.558 123.2 333.2 123.558 333.2 124C333.2 124.442 333.558 124.8 334 124.8Z" fill="#D6D6D1"/>
<path id="Vector_233" d="M348 124.8C348.442 124.8 348.8 124.442 348.8 124C348.8 123.558 348.442 123.2 348 123.2C347.558 123.2 347.2 123.558 347.2 124C347.2 124.442 347.558 124.8 348 124.8Z" fill="#D6D6D1"/>
<path id="Vector_234" d="M362 124.8C362.442 124.8 362.8 124.442 362.8 124C362.8 123.558 362.442 123.2 362 123.2C361.558 123.2 361.2 123.558 361.2 124C361.2 124.442 361.558 124.8 362 124.8Z" fill="#D6D6D1"/>
</g>
</svg>
